# Exported from Wings 3D 1.0.2
mtllib arrow_right.mtl
o cylinder1
#14 vertices, 12 faces
v 0.13111573 -0.77737292 0.18974722
v 0.13162202 -0.42312068 0.18974722
v -0.94968069 -0.44083773 0.18974722
v -0.95617151 0.42690547 0.18974722
v 0.12530844 0.42092662 0.18974722
v 0.11941967 0.78624630 0.18974722
v 0.94798959 7.2529500e-3 0.18974722
v 0.13111573 -0.77737292 -0.22225278
v 0.13162202 -0.42312068 -0.22225278
v -0.94968069 -0.44083773 -0.22225278
v -0.95617151 0.42690547 -0.22225278
v 0.12530844 0.42092662 -0.22225278
v 0.11941967 0.78624630 -0.22225278
v 0.94798959 7.2529500e-3 -0.22225278
vn -0.24197688 -0.56682097 0.78750313
vn -0.29705285 -0.30152861 0.90600226
vn -0.56956843 -0.58332507 0.57907138
vn -0.57664813 0.57552381 0.57987005
vn -0.30039701 0.29723260 0.90631916
vn -0.24842401 0.56205775 0.78890849
vn 0.41733001 2.2319881e-3 0.90875227
vn -0.24197688 -0.56682097 -0.78750313
vn -0.57129314 -0.57990094 -0.58080896
vn -0.56956843 -0.58332507 -0.57907138
vn -0.57664813 0.57552381 -0.57987005
vn -0.57827084 0.57217928 -0.58156143
vn -0.24842401 0.56205775 -0.78890849
vn 0.80927728 4.3282229e-3 -0.58741088
g cylinder1_default
usemtl default
f 1//1 7//7 2//2
f 1//1 8//8 14//14 7//7
f 2//2 5//5 4//4 3//3
f 2//2 7//7 5//5
f 2//2 9//9 8//8 1//1
f 3//3 10//10 9//9 2//2
f 4//4 11//11 10//10 3//3
f 5//5 7//7 6//6
f 5//5 12//12 11//11 4//4
f 6//6 13//13 12//12 5//5
f 7//7 14//14 13//13 6//6
# f 9//9 10//10 11//11 12//12 13//13 14//14 8//8
