# Exported from Wings 3D 1.4.1
mtllib broom.mtl
o cube2
#16 vertices, 14 faces
v -0.10000000 -1.00000000 0.10000000
v -0.40298365 1.16719147 0.10000000
v 0.40298365 1.16719147 0.10000000
v 0.10000000 -1.00000000 0.10000000
v -0.10000000 -1.00000000 -0.10000000
v -0.40298365 1.16719147 -0.10000000
v 0.40298365 1.16719147 -0.10000000
v 0.10000000 -1.00000000 -0.10000000
v -0.10000000 0.45777778 0.10000000
v -0.30200000 0.73155556 0.10000000
v -0.10000000 0.45777778 -0.10000000
v -0.30200000 0.73155556 -0.10000000
v 0.30200000 0.73155556 0.10000000
v 0.10000000 0.45777778 0.10000000
v 0.30200000 0.73155556 -0.10000000
v 0.10000000 0.45777778 -0.10000000
vt 0.13682675 0.12272424
vt 0.22257997 0.33554078
vt 0.31781754 0.98158712
vt 0.32008928 0.51184645
vt 0.32774444 0.13829166
vt 0.32774444 0.22036083
vt 0.38839691 2.2388570e-2
vt 0.40676349 0.50203167
vt 0.41038907 0.26016410
vt 0.41046337 0.98189879
vt 0.45532472 1.2620388e-2
vt 0.46932943 0.25407024
vt 0.49206978 0.69425832
vt 0.49206978 0.77632749
vt 0.50338117 0.98255436
vt 0.50359011 0.49879831
vt 0.57413896 0.69425832
vt 0.57413896 0.77632749
vt 0.59615651 0.98165122
vt 0.59638152 0.50335497
vt 0.65846978 0.13829166
vt 0.65846978 0.22036083
vt 0.66904737 0.28093997
vt 0.68443747 0.51193144
vt 0.68871888 0.98106383
vt 0.72323095 5.3355982e-2
vt 0.72696599 0.30443444
vt 0.78410576 7.8911173e-2
vn -0.57735027 -0.57735027 0.57735027
vn -0.61024455 0.48496645 0.62642568
vn 0.61024455 0.48496645 0.62642568
vn 0.57735027 -0.57735027 0.57735027
vn -0.57735027 -0.57735027 -0.57735027
vn -0.61024455 0.48496645 -0.62642568
vn 0.61024455 0.48496645 -0.62642568
vn 0.57735027 -0.57735027 -0.57735027
vn -0.65422297 -0.21522930 0.72503010
vn -0.63546761 -0.29276567 0.71447126
vn -0.65422297 -0.21522930 -0.72503010
vn -0.63546761 -0.29276567 -0.71447126
vn 0.63546761 -0.29276567 0.71447126
vn 0.65422297 -0.21522930 0.72503010
vn 0.63546761 -0.29276567 -0.71447126
vn 0.65422297 -0.21522930 -0.72503010
g cube2_cube2_auv
usemtl cube2_auv
s 1
f 1/17/1 5/18/5 8/14/8 4/13/4
f 1/10/1 9/8/9 11/16/11 5/15/5
f 2/7/2 10/9/10 13/2/13 3/1/3
f 3/21/3 7/22/7 6/6/6 2/5/2
f 3/28/3 13/27/13 15/23/15 7/26/7
f 4/3/4 14/4/14 9/8/9 1/10/1
f 5/15/5 11/16/11 16/20/16 8/19/8
f 6/11/6 12/12/12 10/9/10 2/7/2
f 7/26/7 15/23/15 12/12/12 6/11/6
f 8/19/8 16/20/16 14/24/14 4/25/4
f 9/8/9 14/4/14 13/2/13 10/9/10
f 10/9/10 12/12/12 11/16/11 9/8/9
f 12/12/12 15/23/15 16/20/16 11/16/11
f 14/24/14 16/20/16 15/23/15 13/27/13
