# Exported from Wings 3D 1.0.2
mtllib cloud.mtl
o F1:GeoDome8
#43 vertices, 35 faces
v -5.28022256 -2.18191814 -0.24019076
v -5.28022256 2.18191814 0.24019076
v -3.26335701 -2.18191814 0.62882758
v -2.0020587e-17 -4.87891728 -9.6485172e-18
v -7.0709358e-17 2.18191814 0.77727364
v -2.0020587e-17 4.87891728 4.7122907e-17
v 3.26335701 -2.18191814 0.62882758
v 5.28022256 -2.18191814 -0.24019076
v 5.28022256 2.18191814 0.24019076
v -6.32658299 4.1407191e-17 1.8385122e-17
v -5.11831315 -2.61430007 0.23282571
v -3.16329149 -4.23002636 -0.14389420
v -5.11831315 1.7136992e-16 0.52061410
v -5.11831315 2.61430007 -0.23282571
v -3.16329149 2.61430007 0.60954561
v -3.16329149 4.23002636 0.14389420
v -1.95502166 -4.23002636 0.37671991
v -1.95502166 8.4728101e-17 0.84237132
v -3.7298261e-17 -2.61430007 0.75343981
v 1.95502166 -4.23002636 0.37671991
v 3.16329149 -4.23002636 -0.14389420
v -3.7298261e-17 4.23002636 0.46565141
v 1.95502166 8.4728101e-17 0.84237132
v 3.16329149 2.61430007 0.60954561
v 3.16329149 4.23002636 0.14389420
v 5.11831315 -2.61430007 0.23282571
v 5.11831315 1.2804901e-16 0.52061410
v 5.11831315 2.61430007 -0.23282571
v 6.32658299 -1.9137191e-18 1.0668929e-17
v 2.25224091 3.94242997 0.43399211
v -2.25224091 3.94242997 0.43399211
v -3.64420234 3.94242997 -0.16577024
v 3.64420234 3.94242997 -0.16577024
v -3.7298261e-17 -0.93068147 0.86798423
v -5.89644325 -0.93068147 0.26822188
v 5.89644325 -0.93068147 0.26822188
v 5.89644325 0.93068147 -0.26822188
v 3.64420234 0.93068147 0.70221399
v -3.64420234 0.93068147 0.70221399
v -5.89644325 0.93068147 -0.26822188
v 3.64420234 -3.94242997 0.16577024
v -3.7298261e-17 -3.94242997 0.53644375
v -3.64420234 -3.94242997 0.16577024
vn -0.64847794 -0.45944442 -0.60694908
vn -0.54252450 0.36289766 0.75760970
vn -0.10975147 -0.11866633 0.98685000
vn -3.4887489e-17 -0.94064542 0.33939091
vn 6.9515316e-18 9.3877012e-2 0.99558380
vn 3.2479173e-17 0.88004813 0.47488451
vn 0.10975147 -0.11866633 0.98685000
vn 0.64847794 -0.45944442 -0.60694908
vn 0.54252450 0.36289766 0.75760970
vn -0.99831177 4.3475108e-2 -3.8516669e-2
vn -0.67154521 -0.50988111 0.53763211
vn -0.42304769 -0.77686582 -0.46637983
vn -0.22016566 1.3354339e-2 0.97537108
vn -0.77754030 0.56066217 -0.28476132
vn -0.12203642 0.15098569 0.98097423
vn -0.43924711 0.72196702 0.53462660
vn -0.11093341 -0.46522927 0.87821154
vn -4.8051700e-2 -1.7677135e-3 0.99884329
vn 1.5650610e-17 -0.11439844 0.99343495
vn 0.11093341 -0.46522927 0.87821154
vn 0.42304769 -0.77686582 -0.46637983
vn 2.1432494e-17 0.37433845 0.92729215
vn 4.8051700e-2 -1.7677135e-3 0.99884329
vn 0.12203642 0.15098569 0.98097423
vn 0.43924711 0.72196702 0.53462660
vn 0.67154521 -0.50988111 0.53763211
vn 0.22016566 1.3354339e-2 0.97537108
vn 0.77754030 0.56066217 -0.28476132
vn 0.99831177 4.3475108e-2 -3.8516669e-2
vn 0.11324061 0.33996384 0.93359582
vn -0.11324061 0.33996384 0.93359582
vn -0.56496377 0.61251087 -0.55285294
vn 0.56496377 0.61251087 -0.55285294
vn 4.6342414e-18 -3.6214801e-2 0.99934403
vn -0.61757098 -0.18490693 0.76447074
vn 0.61757098 -0.18490693 0.76447074
vn 0.65659950 0.31405340 -0.68574599
vn 0.11259712 4.7691049e-2 0.99249557
vn -0.11259712 4.7691049e-2 0.99249557
vn -0.65659950 0.31405340 -0.68574599
vn 0.43500555 -0.77364649 0.46069652
vn 5.1683761e-17 -0.27625223 0.96108517
vn -0.43500555 -0.77364649 0.46069652
g F1:GeoDome8_default
usemtl default
f 1//1 11//11 35//35 10//10
f 1//1 12//12 43//43 11//11
f 2//2 10//10 35//35 13//13
f 2//2 16//16 32//32 14//14
f 3//3 11//11 43//43 17//17
f 3//3 13//13 35//35 11//11
f 3//3 19//19 34//34 18//18
f 4//4 17//17 43//43 12//12
f 4//4 21//21 41//41 20//20
f 5//5 18//18 34//34 23//23
f 5//5 24//24 30//30 22//22
f 6//6 22//22 30//30 25//25
f 7//7 20//20 41//41 26//26
f 7//7 23//23 34//34 19//19
f 8//8 26//26 41//41 21//21
f 9//9 25//25 30//30 24//24
f 9//9 28//28 33//33 25//25
f 9//9 29//29 37//37 28//28
f 10//10 40//40 14//14 32//32 16//16 6//6 25//25 33//33 28//28 37//37 29//29 8//8 21//21 4//4 12//12 1//1
f 13//13 39//39 15//15 2//2
f 14//14 40//40 10//10 2//2
f 15//15 31//31 16//16 2//2
f 15//15 39//39 18//18 5//5
f 16//16 31//31 22//22 6//6
f 17//17 42//42 19//19 3//3
f 18//18 39//39 13//13 3//3
f 19//19 42//42 20//20 7//7
f 20//20 42//42 17//17 4//4
f 22//22 31//31 15//15 5//5
f 23//23 38//38 24//24 5//5
f 24//24 38//38 27//27 9//9
f 26//26 36//36 27//27 7//7
f 27//27 36//36 29//29 9//9
f 27//27 38//38 23//23 7//7
f 29//29 36//36 26//26 8//8
