# Exported from Wings 3D 1.0.2
mtllib door.mtl
o cube2
#20 vertices, 20 faces
v -1.50000000 2.63200000 0.30000000
v -1.50000000 3.23200000 0.30000000
v 1.50000000 3.23200000 0.30000000
v 1.50000000 2.63200000 0.30000000
v -1.50000000 2.63200000 -0.30000000
v -1.50000000 3.23200000 -0.30000000
v 1.50000000 3.23200000 -0.30000000
v 1.50000000 2.63200000 -0.30000000
v -0.95000000 2.63200000 0.30000000
v 0.95000000 2.63200000 0.30000000
v -0.95000000 2.63200000 -0.30000000
v 0.95000000 2.63200000 -0.30000000
v -0.95000000 -1.00311111 -0.30000000
v -0.95000000 -1.00311111 0.30000000
v -1.50000000 -1.00311111 0.30000000
v -1.50000000 -1.00311111 -0.30000000
v 0.95000000 -1.00311111 0.30000000
v 0.95000000 -1.00311111 -0.30000000
v 1.50000000 -1.00311111 -0.30000000
v 1.50000000 -1.00311111 0.30000000
vn -0.70710678 0.0000000e+0 0.70710678
vn -0.40824829 0.40824829 0.81649658
vn 0.40824829 0.40824829 0.81649658
vn 0.70710678 0.0000000e+0 0.70710678
vn -0.70710678 0.0000000e+0 -0.70710678
vn -0.40824829 0.40824829 -0.81649658
vn 0.40824829 0.40824829 -0.81649658
vn 0.70710678 0.0000000e+0 -0.70710678
vn 0.30151134 -0.30151134 0.90453403
vn -0.30151134 -0.30151134 0.90453403
vn 0.30151134 -0.30151134 -0.90453403
vn -0.30151134 -0.30151134 -0.90453403
vn 0.57735027 -0.57735027 -0.57735027
vn 0.57735027 -0.57735027 0.57735027
vn -0.57735027 -0.57735027 0.57735027
vn -0.57735027 -0.57735027 -0.57735027
vn -0.57735027 -0.57735027 0.57735027
vn -0.57735027 -0.57735027 -0.57735027
vn 0.57735027 -0.57735027 -0.57735027
vn 0.57735027 -0.57735027 0.57735027
g cube2_default
usemtl default
f 1//1 9//9 2//2
f 1//1 15//15 14//14 9//9
f 2//2 6//6 5//5 1//1
f 2//2 9//9 10//10 3//3
f 3//3 7//7 6//6 2//2
f 3//3 10//10 4//4
f 4//4 8//8 7//7 3//3
f 4//4 20//20 19//19 8//8
f 5//5 16//16 15//15 1//1
f 6//6 11//11 5//5
f 7//7 12//12 11//11 6//6
f 8//8 12//12 7//7
f 8//8 19//19 18//18 12//12
f 9//9 11//11 12//12 10//10
f 9//9 14//14 13//13 11//11
f 10//10 17//17 20//20 4//4
f 11//11 13//13 16//16 5//5
f 12//12 18//18 17//17 10//10
f 14//14 15//15 16//16 13//13
f 18//18 19//19 20//20 17//17
