# Exported from Wings 3D 1.0.2
mtllib sphere_head.mtl
o tetrahedron9
#4 vertices, 4 faces
v 0.92711111 0.31280039 -3.0725422e-17
v 0.90087195 -0.11504382 0.26200000
v 0.90087195 -0.11504382 -0.26200000
v 2.08181165 -0.11504382 -7.4357187e-17
vn -0.50367607 0.86389259 7.1674141e-16
vn -0.65010299 -0.34794240 0.67550143
vn -0.65010299 -0.34794240 -0.67550143
vn 0.99969008 2.4894657e-2 0.0000000e+0
g tetrahedron9_default
usemtl default
f 1//1 3//3 2//2
f 1//1 4//4 3//3
f 2//2 4//4 1//1
f 3//3 4//4 2//2
