# Exported from Wings 3D 1.0.2
mtllib tree_stem.mtl
o cylinder1
#20 vertices, 20 faces
v 0.92568939 1.00000000 2.7501796e-17
v 0.74889845 1.00000000 0.54410657
v 0.28605375 1.00000000 0.88038293
v -0.28605375 1.00000000 0.88038293
v -0.74889845 1.00000000 0.54410657
v -0.92568939 1.00000000 1.4086231e-16
v -0.74889845 1.00000000 -0.54410657
v -0.28605375 1.00000000 -0.88038293
v 0.28605375 1.00000000 -0.88038293
v 0.74889845 1.00000000 -0.54410657
v 0.92568939 -1.00000000 2.7501796e-17
v 0.74889845 -1.00000000 0.54410657
v 0.28605375 -1.00000000 0.88038293
v -0.28605375 -1.00000000 0.88038293
v -0.74889845 -1.00000000 0.54410657
v -0.92568939 -1.00000000 1.4086231e-16
v -0.74889845 -1.00000000 -0.54410657
v -0.28605375 -1.00000000 -0.88038293
v 0.28605375 -1.00000000 -0.88038293
v 0.74889845 -1.00000000 -0.54410657
vn 0.68915176 0.72461704 0.0000000e+0
vn 0.55753548 0.72461704 0.40507324
vn 0.21295960 0.72461704 0.65542227
vn -0.27352065 0.46534113 0.84181001
vn -0.55753548 0.72461704 0.40507324
vn -0.68915176 0.72461704 1.4078514e-16
vn -0.55753548 0.72461704 -0.40507324
vn -0.21295960 0.72461704 -0.65542227
vn 0.27352065 0.46534113 -0.84181001
vn 0.55753548 0.72461704 -0.40507324
vn 0.88513142 -0.46534113 0.0000000e+0
vn 0.55753548 -0.72461704 0.40507324
vn 0.21295960 -0.72461704 0.65542227
vn -0.21295960 -0.72461704 0.65542227
vn -0.55753548 -0.72461704 0.40507324
vn -0.88513142 -0.46534113 1.8082135e-16
vn -0.55753548 -0.72461704 -0.40507324
vn -0.21295960 -0.72461704 -0.65542227
vn 0.21295960 -0.72461704 -0.65542227
vn 0.55753548 -0.72461704 -0.40507324
g cylinder1_default
usemtl default
f 1//1 7//7 6//6 2//2
f 1//1 11//11 20//20 10//10
f 2//2 6//6 5//5 3//3
f 2//2 12//12 11//11 1//1
f 3//3 5//5 4//4
f 3//3 13//13 12//12 2//2
f 4//4 14//14 13//13 3//3
f 5//5 15//15 14//14 4//4
f 6//6 16//16 15//15 5//5
f 7//7 17//17 16//16 6//6
f 8//8 10//10 9//9
f 8//8 18//18 17//17 7//7
f 9//9 19//19 18//18 8//8
f 10//10 8//8 7//7 1//1
f 10//10 20//20 19//19 9//9
f 12//12 20//20 11//11
f 13//13 19//19 20//20 12//12
f 14//14 18//18 19//19 13//13
f 15//15 17//17 18//18 14//14
f 16//16 17//17 15//15
